<svg xmlns="http://www.w3.org/2000/svg" width="1200" height="800" viewBox="-22.7043 -37.8405 196.7706 227.043"><path d="M101.739 78.398s-.835.056-1.245.121c-1.584.255-2.055.684-2.055 2.634v15.382c0 2.098 1.306 2.223 3.149 2.326 4.497.255 7.11-3.74 7.11-10.2 0-6.466-2.595-10.263-6.96-10.263 0 0-.834.057-1.244.122-1.584.255-2.055.683-2.055 2.633v15.382c0 2.098 1.306 2.223 3.149 2.327 4.497.255 7.11-3.74 7.11-10.201 0-6.465-2.595-10.262-6.959-10.262m-47.212.225c-4.034 0-6.525 3.848-6.525 10.228 0 6.236 2.451 10.01 6.599 10.01 4.035 0 6.565-3.922 6.565-10.08 0-6.236-2.569-10.158-6.639-10.158m24.076 0c-4.035 0-6.531 3.848-6.531 10.228 0 6.236 2.457 10.01 6.604 10.01 4.03 0 6.56-3.922 6.56-10.08 0-6.236-2.564-10.158-6.633-10.158m23.136-.225s-.835.056-1.245.12c-1.584.256-2.055.685-2.055 2.635v15.382c0 2.097 1.306 2.222 3.149 2.326 4.497.255 7.11-3.74 7.11-10.201 0-6.465-2.595-10.262-6.959-10.262 0 0-.835.056-1.245.121-1.584.255-2.055.684-2.055 2.634v15.382c0 2.097 1.306 2.222 3.149 2.326 4.497.255 7.11-3.74 7.11-10.201 0-6.465-2.595-10.262-6.959-10.262m-23.136.225c-4.035 0-6.531 3.849-6.531 10.228 0 6.236 2.458 10.011 6.604 10.011 4.031 0 6.561-3.922 6.561-10.08 0-6.236-2.565-10.159-6.634-10.159m-24.076 0c-4.034 0-6.525 3.849-6.525 10.228 0 6.236 2.451 10.011 6.599 10.011 4.035 0 6.565-3.922 6.565-10.08 0-6.236-2.569-10.159-6.639-10.159m3.296 36.15a178.69 178.69 0 01-1.072-2.215c-.1-.207-.35-.22-.441.009-.104.255-.995 2.046-1.055 2.175-.1.213.012.351.216.351h2.131c.156 0 .311-.138.221-.32m-3.296-36.15c-4.034 0-6.525 3.85-6.525 10.228 0 6.236 2.451 10.011 6.599 10.011 4.035 0 6.565-3.922 6.565-10.08 0-6.236-2.569-10.159-6.639-10.159m24.076 0c-4.035 0-6.531 3.85-6.531 10.228 0 6.236 2.457 10.011 6.604 10.011 4.031 0 6.561-3.922 6.561-10.08 0-6.236-2.565-10.159-6.634-10.159m23.136-.225s-.835.056-1.245.122c-1.584.255-2.055.683-2.055 2.633v15.382c0 2.098 1.306 2.223 3.149 2.327 4.497.255 7.11-3.74 7.11-10.201 0-6.465-2.595-10.262-6.959-10.262 0 0-.835.056-1.245.12-1.584.256-2.055.685-2.055 2.635v15.382c0 2.097 1.306 2.222 3.15 2.326 4.497.255 7.11-3.74 7.11-10.201 0-6.465-2.596-10.262-6.96-10.262m-23.136.225c-4.035 0-6.53 3.849-6.53 10.228 0 6.236 2.457 10.01 6.603 10.01 4.031 0 6.561-3.922 6.561-10.08 0-6.235-2.565-10.158-6.634-10.158m-24.076 0c-4.033 0-6.525 3.849-6.525 10.228 0 6.236 2.452 10.01 6.6 10.01 4.034 0 6.564-3.922 6.564-10.08 0-6.235-2.569-10.158-6.639-10.158m3.297 36.15a178.69 178.69 0 01-1.073-2.215c-.1-.208-.35-.22-.441.009-.104.255-.995 2.046-1.055 2.175-.1.212.012.351.216.351h2.131c.157 0 .312-.139.222-.32a178.69 178.69 0 01-1.073-2.215c-.1-.207-.35-.22-.441.009-.104.255-.995 2.046-1.055 2.175-.1.213.012.351.216.351h2.131c.156 0 .311-.138.221-.32m-3.296-36.15c-4.034 0-6.525 3.848-6.525 10.227 0 6.236 2.451 10.011 6.6 10.011 4.034 0 6.564-3.922 6.564-10.08 0-6.236-2.569-10.159-6.639-10.159m17.174 32.34h-2.716c-.281 0-.575.099-.575.449v1.981c0 .311.294.493.575.493h2.716c.913 0 1.656-.48 1.656-1.461 0-.982-.743-1.462-1.656-1.462m6.903-32.34c-4.035 0-6.531 3.85-6.531 10.228 0 6.237 2.457 10.011 6.603 10.011 4.032 0 6.562-3.922 6.562-10.08 0-6.236-2.565-10.159-6.634-10.159m23.136-.225s-.835.057-1.245.122c-1.584.255-2.055.683-2.055 2.633v15.382c0 2.098 1.306 2.223 3.149 2.327 4.497.255 7.11-3.74 7.11-10.201 0-6.465-2.595-10.262-6.96-10.262 0 0-.834.056-1.244.12-1.584.256-2.055.685-2.055 2.635v15.382c0 2.097 1.306 2.222 3.149 2.326 4.497.255 7.11-3.74 7.11-10.201 0-6.465-2.595-10.262-6.959-10.262m-23.136.225c-4.035 0-6.531 3.849-6.531 10.228 0 6.236 2.457 10.01 6.604 10.01 4.03 0 6.56-3.922 6.56-10.08 0-6.235-2.564-10.158-6.633-10.158m-24.076 0c-4.034 0-6.525 3.849-6.525 10.228 0 6.236 2.451 10.01 6.599 10.01 4.035 0 6.565-3.922 6.565-10.08 0-6.235-2.569-10.158-6.639-10.158m17.174 32.34h-2.716c-.281 0-.575.099-.575.449v1.98c0 .312.294.493.575.493h2.716c.912 0 1.656-.48 1.656-1.46 0-.982-.744-1.462-1.656-1.462m-13.878 3.81a178.69 178.69 0 01-1.073-2.215c-.1-.208-.35-.22-.44.009-.105.255-.996 2.046-1.056 2.175-.1.212.013.351.216.351h2.132c.156 0 .31-.139.22-.32a178.69 178.69 0 01-1.072-2.215c-.1-.207-.35-.22-.44.01-.105.254-.996 2.045-1.056 2.174-.1.213.013.351.216.351h2.132c.156 0 .31-.138.22-.32m-3.295-36.15c-4.034 0-6.525 3.848-6.525 10.227 0 6.237 2.45 10.011 6.598 10.011 4.035 0 6.565-3.922 6.565-10.08 0-6.236-2.568-10.159-6.638-10.159m17.174 32.34h-2.717c-.28 0-.575.1-.575.45v1.98c0 .312.294.493.575.493h2.717c.912 0 1.656-.48 1.656-1.461 0-.982-.744-1.462-1.656-1.462m6.902-32.34c-4.035 0-6.531 3.85-6.531 10.228 0 6.237 2.457 10.011 6.604 10.011 4.031 0 6.561-3.922 6.561-10.08 0-6.236-2.565-10.159-6.634-10.159m23.136-.225s-.835.057-1.245.122c-1.584.255-2.055.683-2.055 2.633v15.382c0 2.098 1.306 2.223 3.149 2.327 4.497.255 7.11-3.74 7.11-10.201 0-6.465-2.595-10.262-6.959-10.262 0 0-.835.056-1.245.12-1.584.256-2.055.685-2.055 2.635v15.382c0 2.097 1.306 2.222 3.15 2.326 4.497.255 7.11-3.74 7.11-10.201 0-6.465-2.596-10.262-6.96-10.262m-23.136.225c-4.035 0-6.53 3.849-6.53 10.228 0 6.236 2.457 10.01 6.603 10.01 4.031 0 6.561-3.922 6.561-10.08 0-6.235-2.565-10.158-6.634-10.158m-24.076 0c-4.033 0-6.525 3.849-6.525 10.228 0 6.236 2.452 10.01 6.6 10.01 4.034 0 6.564-3.922 6.564-10.08 0-6.235-2.569-10.158-6.639-10.158m17.174 32.34h-2.716c-.281 0-.575.099-.575.449v1.98c0 .312.294.493.575.493h2.716c.913 0 1.657-.48 1.657-1.46 0-.982-.744-1.462-1.657-1.462m-13.878 3.81a178.69 178.69 0 01-1.072-2.215c-.1-.208-.35-.22-.441.009-.104.255-.995 2.046-1.055 2.175-.1.212.012.351.216.351h2.131c.156 0 .311-.139.221-.32m74.755-14.017c0-.255-.255-.316-.506-.316h-.345v.627h.259c.316 0 .592-.017.592-.31m0 1.564l-.64-.904h-.216v.904h-.381v-2.231h.839c.523 0 .76.208.76.666 0 .445-.245.618-.57.653l.648.912zm-.515-2.595c-.86 0-1.5.645-1.5 1.535 0 .891.64 1.531 1.5 1.531.865 0 1.5-.64 1.5-1.53s-.635-1.536-1.5-1.536M56.746 112.56c-.1-.207-.35-.22-.44.01-.105.254-.996 2.045-1.056 2.174-.1.213.013.351.216.351h2.132c.156 0 .31-.138.22-.32a178.69 178.69 0 01-1.072-2.215m-2.223-33.935c-4.034 0-6.525 3.85-6.525 10.228 0 6.237 2.45 10.011 6.598 10.011 4.035 0 6.565-3.922 6.565-10.08 0-6.236-2.568-10.159-6.638-10.159m17.174 32.34H68.98c-.28 0-.575.1-.575.45v1.98c0 .312.294.493.575.493h2.717c.912 0 1.656-.48 1.656-1.461 0-.982-.744-1.462-1.656-1.462m6.902-32.34c-4.035 0-6.531 3.85-6.531 10.228 0 6.237 2.457 10.011 6.604 10.011 4.03 0 6.56-3.922 6.56-10.08 0-6.236-2.564-10.159-6.633-10.159m30.095 10.038c0-6.465-2.595-10.262-6.959-10.262 0 0-.835.057-1.245.122-1.583.255-2.055.683-2.055 2.634v15.382c0 2.097 1.307 2.222 3.15 2.326 4.497.255 7.11-3.74 7.11-10.201m25.32-17.8c-.147.673-.567.921-1.307.921l-.938.004h-14.398c-1.236 0-1.656-.246-1.656-1.064 0-.54.42-.986.913-.986h.743c.255 0 .512-.225.59-.471.112-.3.142-.48.142-1.47V51.38c0-.952-.03-1.143-.143-1.44-.077-.325-.372-.545-.589-.545h-.743c-.493 0-.943-.48-.943-1.025 0-.814.45-1.078 1.686-1.078h14.656c.74 0 1.155.248 1.307.921l.518 2.553c.2.942-.133 1.449-.803 1.449-.355 0-.697-.092-.944-.572a5.332 5.332 0 01-.363-.79c-.358-.945-1.098-1.06-2.807-1.06h-3.459c-2.002 0-2.227.263-2.227 2.213v4.36c0 .821.116 1.18.337 1.328.169.116.441.142 1.493.142h1.707c1.54 0 1.76-.112 1.873-.847l.026-.225c.112-.623.441-.917.995-.917.769 0 1.025.437 1.025 1.725v3.084c0 1.284-.256 1.725-1.025 1.725-.554 0-.883-.332-.995-.955l-.039-.242c-.109-.735-.329-.844-1.872-.844h-1.695c-1.052 0-1.324.026-1.493.142-.221.148-.337.503-.337 1.33v4.652c0 1.942.116 2.352.696 2.577.471.178.981.255 2.184.255l3.65-.009c1.31 0 2.236-.41 2.69-1.361.207-.433.272-.598.316-.671.246-.48.635-.692.994-.692.666 0 .995.507.8 1.45l-.567 2.85zm-1.95 32.314a1.906 1.906 0 01-1.908-1.913c0-1.064.847-1.915 1.907-1.915 1.055 0 1.908.851 1.908 1.915a1.91 1.91 0 01-1.908 1.913m-8.55-1.656c-1.354 0-2.806-.192-3.854-.52-.527-.143-.587-.182-.795-.182-.31 0-.467.074-.782.364-.346.264-.528.338-.853.338-.613 0-.916-.338-1.132-1.217l-.926-3.67a2.9 2.9 0 01-.095-.736c0-.652.506-1.146 1.158-1.146.382 0 .697.195.922.494l.527.726c1.271 1.795 3.326 2.906 5.424 2.906 2.382 0 4.009-1.332 4.009-3.274 0-.995-.412-1.872-1.194-2.755-.795-.877-1.781-1.686-3.892-3.152-3.477-2.435-3.802-2.656-4.943-3.97-.925-1.073-1.397-2.388-1.397-3.854 0-3.559 2.707-5.911 6.75-5.911 1.038 0 2.098.099 3.167.329.111.038.41.107.929.225.168.033.36.072.502.072.243 0 .523-.12.843-.332.363-.264.48-.294.775-.294.54 0 .886.367 1.033 1.025l.878 3.97c.065.172.065.394.065.51 0 .48-.429.877-1.055.877-.394 0-.636-.146-.974-.617-.826-1.25-.981-1.394-1.747-1.985a5.7 5.7 0 00-3.45-1.181c-1.697 0-2.794.965-2.794 2.47 0 .54.095 1.097.397 1.503.372.554.96 1.134 1.687 1.688.453.324 1.033.744 1.816 1.289 2.897 2.019 3.849 2.755 5.03 3.96 1.241 1.285 1.985 3.118 1.985 5.005 0 4.242-3.166 7.045-8.014 7.045m-9.268 9.46h-2.136c-.293 0-.506.097-.506.45l.013 6.388c0 .45-.32.503-.822.503-.483 0-.808-.049-.808-.485v-6.396c0-.312-.113-.459-.502-.459h-2.162c-.35 0-.45-.336-.45-.618 0-.31-.027-.912.437-.912h6.901c.312 0 .52.172.52.744 0 .506-.135.786-.485.786m-17.749 1.976h3.05c.367 0 .463.321.463.788 0 .406-.087.76-.429.76h-3.04c-.242 0-.462.17-.462.45v1.293c0 .312.169.46.419.46h5.228c.347 0 .468.228.468.8 0 .41-.095.748-.463.748h-6.733c-.39 0-.55-.186-.55-.649v-7.586c0-.345.138-.588.54-.588h6.756c.402 0 .475.268.475.748 0 .446-.06.8-.496.8H96.44c-.21 0-.362.165-.362.394v1.194c0 .25.181.388.419.388M90.95 99.833c0-.553.368-1.02.873-1.02h.748c.252 0 .502-.195.623-.48.074-.263.112-.485.112-1.445V80.546c0-.956-.038-1.18-.112-1.445-.121-.28-.371-.48-.623-.48h-.748c-.505 0-.873-.466-.873-1.02 0-.8.553-.912 1.621-1.072 1.073-.156 4.065-.566 8.645-.566 4.575 0 7.416.993 9.665 3.268 2.16 2.168 3.33 5.505 3.33 9.472 0 4.44-1.496 8.112-4.22 10.28-2.115 1.712-4.77 2.49-8.775 2.49-4.58 0-7.572-.41-8.645-.567-1.069-.155-1.62-.267-1.62-1.072m-12.392 1.674c-5.92 0-10.158-3.343-11.52-8.732a.548.548 0 01-.039-.12c-.12-.606-.666-.65-.796-.005 0 .021-.017.043-.026.065-1.375 5.466-5.635 8.791-11.694 8.791-7.261 0-11.988-5.025-11.988-12.689 0-7.843 4.692-12.835 12.06-12.835 6.05 0 10.355 3.374 11.673 8.874.139.631.675.584.791-.016 0-.01 0-.018.013-.023 1.345-5.5 5.578-8.835 11.602-8.835 7.335 0 12.1 4.952 12.1 12.654 0 7.845-4.73 12.87-12.174 12.87m10.164 16.82c-.744 0-.948-.117-1.138-.347l-2.824-3.014c-.385-.333-.77-.385-1.297-.385-.295 0-.524.303-.524.653v2.569c0 .488-.419.52-.877.52-.485 0-.74-.135-.74-.524v-7.841c0-.463.29-.54.86-.54.45 0 .757.103.757.527v2.366c0 .38.174.567.411.567.688 0 .835-.148 1.09-.368a467.13 467.13 0 003.183-2.902c.364-.312.731-.307 1.081.03.29.277.419.588.095.908a418.97 418.97 0 01-2.768 2.522c-.316.272-.237.527-.02.765 0 0 3.052 3.365 3.372 3.71.48.523.038.783-.662.783m-15.518-2.846c.07.105 1.307 1.899 1.488 2.168.272.406.026.675-.816.675-.472 0-.788-.083-.992-.385l-1.37-2.13c-.156-.237-.38-.388-.688-.388h-1.96c-.237 0-.462.195-.462.433l.013 2.123c0 .42-.813.35-1.08.35-.351 0-.545-.1-.545-.492l.012-8.075c0-.211.182-.338.377-.338h4.645c1.793 0 3.143 1.155 3.143 3.007 0 1.6-1.155 2.123-1.617 2.516-.229.2-.285.337-.148.536m-13.055 2.846c-.268 0-.675-.044-.8-.337l-.57-1.18a.466.466 0 00-.412-.282H54.73c-.228 0-.436.173-.566.498l-.505.964c-.112.281-.662.325-.917.325-.225 0-.964-.027-.732-.52l3.863-8.013c.107-.234.311-.411.675-.411.362 0 .561.121.682.38 0 0 3.69 7.862 3.793 8.092.191.41-.605.484-.873.484m-13.982 0c-.225 0-.643-.125-.643-.42l-.623-4.709c-.04-.195-.112-.28-.269-.28-.125 0-.19.06-.276.168l-2.115 2.707c-.109.147-.251.238-.42.238-.241 0-.346-.061-.484-.264l-1.946-2.625a.334.334 0 00-.281-.139c-.155 0-.234.14-.255.32l-.61 4.554c-.056.376-.519.45-.9.45-.264 0-.713-.125-.713-.462l.895-7.676c.095-.46.194-.723.857-.723.168 0 .441.048.652.376l2.418 3.4c.13.185.277.342.437.337.16-.004.324-.17.463-.35l2.55-3.47c.157-.237.395-.337.676-.337.306 0 .531.07.661.585l.895 7.87c.044.45-.661.45-.969.45M30.96 96.968c0 .99 0 1.168.087 1.426a.935.935 0 00.782.485h.83c.575 0 .974.472.974 1.025 0 .81-.45 1.064-1.804 1.064h-6.755c-1.254 0-1.695-.255-1.695-1.064 0-.553.441-1.025.946-1.025h.75c.25 0 .497-.19.618-.485.077-.258.116-.436.116-1.426V80.55c0-.951-.03-1.14-.147-1.435-.078-.325-.372-.55-.588-.55h-.744c-.493 0-.942-.475-.942-1.024 0-.808.449-1.072 1.686-1.072H40.99c.739 0 1.159.246 1.305.92l.52 2.552c.199.938-.135 1.45-.801 1.45-.359 0-.7-.096-.946-.576a5.65 5.65 0 01-.364-.787c-.359-.943-1.099-1.064-2.806-1.064h-4.714c-2.006 0-2.231.267-2.231 2.214v4.364c0 .82.116 1.176.34 1.327.17.118.437.143 1.493.143h3.035c1.54 0 1.76-.113 1.873-.848l.026-.229c.113-.622.441-.917.99-.917.775 0 1.03.441 1.03 1.726v3.088c0 1.285-.255 1.725-1.03 1.725-.549 0-.877-.333-.99-.955l-.039-.243c-.108-.735-.328-.847-1.872-.847h-3.023c-1.056 0-1.323.026-1.492.142-.225.151-.341.506-.341 1.333l.012 5.98zM18.876 51.152c-.548-1.509-.722-1.69-1.898-1.945-.783-.143-1.025-.398-1.025-.991 0-.622.39-.951 1.232-.951h7.581c.835 0 1.207.329 1.207.99 0 .619-.372.87-1.323.952-.809.073-1.137.333-1.137.917 0 .25.03.515.133.817l.29.839s4.053 11.478 4.693 13.324c.107.295.441.281.554-.048.712-2.045 2.65-7.67 2.72-7.9.198-.648.285-1.332.05-2.08-.08-.265-1.322-3.923-1.322-3.923-.139-.398-.221-.692-.304-.843-.216-.536-.513-.731-1.36-.956-.758-.186-1.048-.436-1.048-.981 0-.705.424-1.108 1.28-1.108h7.205c.835 0 1.241.329 1.241.99 0 .584-.371.87-1.189.986-.977.113-1.241.338-1.241.995 0 .333.074.662.376 1.544 0 0 3.555 11.25 4.118 13.018.107.333.423.259.513-.035.554-1.799 4.07-13.61 4.07-13.61a3.32 3.32 0 00.143-.881c0-.55-.394-.844-1.285-.956-.809-.074-1.18-.442-1.18-1.025 0-.735.42-1.025 1.396-1.025H56.09c1.211 0 1.613.246 1.613 1.05 0 .602-.402 1.038-.908 1.038h-.705c-.302 0-.589.225-.701.468-.069.272-.099.527-.099 1.444v4.736c0 1.695.146 1.837 1.505 1.837h4.986c.73 0 1.108-.116 1.293-.328.169-.225.169-.368.169-1.73v-4.515c0-.955 0-1.172-.09-1.444-.13-.281-.42-.468-.672-.468h-.7c-.553 0-.998-.436-.998-1.037 0-.805.445-1.051 1.698-1.051h6.674c1.25 0 1.695.246 1.695 1.05 0 .602-.446 1.038-.947 1.038h-.748c-.251 0-.545.225-.623.468-.104.272-.13.527-.13 1.444v16.486c0 .955.026 1.17.13 1.47.078.255.372.437.623.437h.748c.545 0 .947.48.947 1.024 0 .814-.402 1.065-1.695 1.065h-6.674c-1.253 0-1.65-.251-1.65-1.065 0-.544.444-1.024.95-1.024h.7c.252 0 .542-.182.672-.437.09-.3.09-.515.09-1.47v-5.36c0-1.362 0-1.504-.169-1.724-.185-.216-.562-.334-1.292-.334h-4.987c-1.358 0-1.505.144-1.505 1.839v5.579c0 .955.03 1.17.099 1.47a.778.778 0 00.701.437h.705c.507 0 .883.48.883 1.068 0 .77-.42 1.02-1.588 1.02H49.4c-1.232 0-1.679-.25-1.679-1.064 0-.544.447-1.024.952-1.024h.727c.259 0 .561-.182.631-.437.113-.3.113-.49.113-1.47V51.266c0-1.873-.879-1.998-1.523-1.912-.648.092-1.028.503-1.427 1.8l-5.851 18.838c-.528 1.795-1.025 2.309-2.123 2.309-1.095 0-1.652-.475-2.094-1.834l-3.122-9.336c-.104-.299-.415-.308-.501-.021-.083.288-3.335 9.357-3.335 9.357-.354.879-.445 1.134-.744 1.433-.289.216-.77.4-1.25.4-1.064 0-1.586-.44-2.093-1.833l-7.205-19.314zm48.726-11.114c1.228-4.559 5.66-9.16 10.56-7.754 4.157 1.185 3.863 4.62 6.885 5.695 1.085.385 1 1.475.053 1.657-1.596.302-3.75-.857-5.359-2.314-1.881-1.708-4.939-1.634-6.431-.498-.653.498-.32.974.277.84 1.384-.298 3.728-.376 5.532 1.648 1.772 1.989 5.076 3.766 8 1.859.805-.523 1.327-1.604 2.145-1.37.873.246.886 1.517-.26 2.996-2.703 3.486-5.474 3.071-8.445 5.981-2.968 2.91-3.568 6.219-3.568 10.422 0 6.518 2.564 10.465 6.898 10.465 4.216 0 6.862-4.099 6.862-10.542 0-5.311-1.257-8.745-4.411-9.956-1.526-.566-1.266-2.058.701-2.291 1.621-.19 3.209.362 4.951 1.647C95 50.737 96.5 54.257 96.5 58.973c0 8.203-4.943 13.453-12.722 13.453-7.594 0-12.538-5.25-12.538-13.264 0-5.155 1.937-9.125 5.288-11.365 1.402-1.047 3.772-2.254 6.094-3.04.48-.165.476-1.017-.376-.852-1.016.203-2.885.35-4.429-.273-3.464-1.366-4.471-3.81-8.549-2.059-1.228.528-2.02-.22-1.665-1.535m30.99 7.257h6.782c1.322 0 1.772.263 1.772 1.077 0 .584-.45 1.025-.972 1.025h-.8c-.338 0-.667.181-.77.48-.11.246-.11.471-.11 1.428V66.72c0 1.613.07 1.99.503 2.24.377.26.938.328 2.413.328h2.067c1.31 0 2.237-.41 2.69-1.36.208-.438.273-.598.315-.672.248-.48.637-.696.992-.696.67 0 .998.51.803 1.453l-.566 2.85c-.147.674-.566.922-1.306.922H98.593c-1.224 0-1.626-.243-1.626-1.06 0-.54.402-.987.916-.987h.71c.242 0 .54-.225.614-.47.108-.273.142-.45.142-1.367V51.304c0-.991-.034-1.137-.142-1.427a.659.659 0 00-.614-.48h-.71c-.553 0-.999-.442-.999-1.025 0-.814.446-1.078 1.709-1.078M75.681 0C33.883 0 0 33.884 0 75.681c0 41.798 33.884 75.681 75.681 75.681 41.803 0 75.681-33.884 75.681-75.681C151.362 33.883 117.483 0 75.681 0m56.895 100.76c0-.255-.255-.316-.506-.316h-.345v.627h.259c.316 0 .592-.017.592-.311m0 1.565l-.64-.904h-.216v.904h-.382v-2.231h.84c.523 0 .76.207.76.666 0 .445-.246.618-.57.653l.648.912zm-.515-2.595c-.861 0-1.501.645-1.501 1.535 0 .891.64 1.531 1.501 1.531.865 0 1.5-.64 1.5-1.531 0-.89-.635-1.535-1.5-1.535m-74.245 15.046c-.061-.112-.965-1.981-1.072-2.215-.1-.207-.35-.22-.442.009-.103.255-.995 2.046-1.055 2.175-.1.212.013.351.217.351h2.13c.157 0 .312-.139.222-.32m13.878-3.81h-2.716c-.281 0-.575.099-.575.449v1.981c0 .311.294.493.575.493h2.716c.912 0 1.656-.48 1.656-1.461 0-.982-.744-1.462-1.656-1.462M54.52 78.626c-4.034 0-6.525 3.85-6.525 10.228 0 6.237 2.451 10.011 6.599 10.011 4.035 0 6.565-3.922 6.565-10.08 0-6.236-2.569-10.159-6.639-10.159m24.076 0c-4.035 0-6.531 3.85-6.531 10.228 0 6.237 2.457 10.011 6.604 10.011 4.03 0 6.56-3.922 6.56-10.08 0-6.236-2.564-10.159-6.633-10.159m23.136-.225s-.835.057-1.245.122c-1.584.255-2.055.683-2.055 2.633v15.382c0 2.098 1.306 2.223 3.149 2.327 4.497.255 7.11-3.74 7.11-10.201 0-6.465-2.595-10.262-6.959-10.262m30.84 22.359c0-.255-.256-.317-.507-.317h-.345v.628h.259c.316 0 .592-.018.592-.311m0 1.565l-.64-.904h-.216v.904h-.381v-2.232h.838c.524 0 .762.208.762.667 0 .445-.247.617-.57.652l.647.913zm-.515-2.595c-.861 0-1.501.645-1.501 1.535 0 .89.64 1.53 1.501 1.53.865 0 1.5-.64 1.5-1.53s-.635-1.535-1.5-1.535M101.727 78.4s-.835.057-1.245.122c-1.584.255-2.055.684-2.055 2.634v15.382c0 2.097 1.306 2.222 3.149 2.326 4.497.255 7.11-3.74 7.11-10.201 0-6.465-2.595-10.262-6.959-10.262m-23.136.225c-4.035 0-6.531 3.849-6.531 10.228 0 6.236 2.457 10.01 6.604 10.01 4.031 0 6.561-3.922 6.561-10.08 0-6.235-2.565-10.158-6.634-10.158m-6.902 32.34h-2.717c-.28 0-.575.099-.575.449v1.98c0 .312.294.493.575.493h2.717c.912 0 1.656-.48 1.656-1.46 0-.982-.744-1.462-1.656-1.462m-17.174-32.34c-4.034 0-6.525 3.849-6.525 10.228 0 6.236 2.45 10.01 6.598 10.01 4.035 0 6.565-3.922 6.565-10.08 0-6.235-2.568-10.158-6.638-10.158m3.296 36.15c-.061-.113-.965-1.981-1.073-2.215-.1-.208-.35-.22-.44.009-.105.255-.996 2.046-1.056 2.175-.1.212.013.351.216.351h2.132c.156 0 .31-.139.22-.32-.06-.112-.964-1.981-1.072-2.215-.1-.207-.35-.22-.44.01-.105.254-.996 2.045-1.056 2.174-.1.213.013.351.216.351h2.132c.156 0 .31-.138.22-.32m13.879-3.81h-2.716c-.282 0-.575.1-.575.45v1.98c0 .312.293.493.575.493h2.716c.912 0 1.656-.48 1.656-1.461 0-.982-.744-1.462-1.656-1.462m-17.174-32.34c-4.034 0-6.525 3.848-6.525 10.227 0 6.237 2.451 10.011 6.599 10.011 4.035 0 6.565-3.922 6.565-10.08 0-6.236-2.57-10.159-6.64-10.159m24.077 0c-4.035 0-6.531 3.85-6.531 10.228 0 6.237 2.457 10.011 6.603 10.011 4.032 0 6.562-3.922 6.562-10.08 0-6.236-2.565-10.159-6.634-10.159m23.136-.225s-.835.057-1.245.122c-1.584.255-2.055.683-2.055 2.633v15.382c0 2.098 1.306 2.223 3.149 2.327 4.497.255 7.11-3.74 7.11-10.201 0-6.465-2.595-10.262-6.96-10.262 0 0-.834.056-1.244.12-1.584.256-2.055.685-2.055 2.635v15.382c0 2.097 1.306 2.222 3.149 2.326 4.497.255 7.11-3.74 7.11-10.201 0-6.465-2.595-10.262-6.959-10.262m-23.136.225c-4.035 0-6.531 3.849-6.531 10.228 0 6.236 2.457 10.01 6.604 10.01 4.03 0 6.56-3.922 6.56-10.08 0-6.235-2.564-10.158-6.633-10.158m-6.903 32.34h-2.716c-.281 0-.575.099-.575.449v1.98c0 .312.294.493.575.493h2.716c.913 0 1.657-.48 1.657-1.46 0-.982-.744-1.462-1.657-1.462m-17.174-32.34c-4.033 0-6.525 3.849-6.525 10.228 0 6.236 2.452 10.011 6.6 10.011 4.034 0 6.564-3.923 6.564-10.08 0-6.236-2.569-10.159-6.639-10.159m3.297 36.15c-.062-.113-.965-1.981-1.073-2.215-.1-.208-.35-.22-.441.009-.104.255-.995 2.046-1.055 2.175-.1.212.012.351.216.351h2.131c.157 0 .312-.139.222-.32-.062-.112-.965-1.981-1.073-2.215-.1-.207-.35-.22-.441.01-.104.254-.995 2.045-1.055 2.174-.1.213.012.351.216.351h2.131c.157 0 .312-.138.222-.32m13.878-3.81h-2.717c-.28 0-.575.1-.575.45v1.98c0 .312.294.493.575.493h2.717c.912 0 1.656-.48 1.656-1.461 0-.981-.744-1.461-1.656-1.461m-17.174-32.34c-4.034 0-6.525 3.848-6.525 10.228 0 6.236 2.45 10.01 6.598 10.01 4.035 0 6.565-3.922 6.565-10.08 0-6.236-2.568-10.158-6.638-10.158m24.076 0c-4.035 0-6.532 3.848-6.532 10.228 0 6.236 2.458 10.01 6.604 10.01 4.031 0 6.561-3.922 6.561-10.08 0-6.236-2.565-10.158-6.633-10.158m23.136-.225s-.835.056-1.245.12c-1.584.256-2.055.685-2.055 2.635v15.382c0 2.097 1.306 2.222 3.148 2.326 4.498.255 7.11-3.74 7.11-10.201 0-6.465-2.595-10.262-6.958-10.262 0 0-.835.056-1.245.121-1.584.255-2.055.684-2.055 2.634v15.382c0 2.097 1.306 2.222 3.148 2.326 4.498.255 7.11-3.74 7.11-10.201 0-6.465-2.595-10.262-6.958-10.262m-23.136.225c-4.035 0-6.531 3.849-6.531 10.228 0 6.236 2.457 10.011 6.603 10.011 4.032 0 6.562-3.922 6.562-10.08 0-6.236-2.565-10.159-6.634-10.159m-6.903 32.34h-2.716c-.281 0-.575.099-.575.449v1.981c0 .311.294.492.575.492h2.716c.913 0 1.656-.48 1.656-1.46 0-.982-.743-1.462-1.656-1.462m-17.174-32.34c-4.034 0-6.525 3.849-6.525 10.228 0 6.236 2.451 10.011 6.6 10.011 4.034 0 6.564-3.922 6.564-10.08 0-6.236-2.569-10.159-6.639-10.159m3.296 36.15c-.06-.112-.965-1.981-1.072-2.215-.1-.207-.35-.22-.441.01-.104.254-.995 2.045-1.055 2.174-.1.213.012.351.216.351h2.131c.156 0 .311-.138.221-.32m-3.296-36.15c-4.034 0-6.525 3.85-6.525 10.228 0 6.237 2.451 10.011 6.599 10.011 4.035 0 6.565-3.922 6.565-10.08 0-6.236-2.569-10.159-6.639-10.159m24.076 0c-4.035 0-6.531 3.85-6.531 10.228 0 6.237 2.458 10.011 6.604 10.011 4.031 0 6.561-3.922 6.561-10.08 0-6.236-2.565-10.159-6.634-10.159m23.136-.225s-.835.057-1.245.122c-1.584.255-2.055.683-2.055 2.633V96.54c0 2.098 1.306 2.223 3.149 2.327 4.498.255 7.11-3.74 7.11-10.201 0-6.465-2.595-10.262-6.959-10.262 0 0-.835.056-1.245.12-1.583.256-2.055.685-2.055 2.635V96.54c0 2.097 1.307 2.222 3.15 2.326 4.497.255 7.11-3.74 7.11-10.201 0-6.465-2.596-10.262-6.96-10.262m-23.136.225c-4.035 0-6.53 3.849-6.53 10.228 0 6.236 2.457 10.01 6.603 10.01 4.031 0 6.561-3.922 6.561-10.08 0-6.235-2.565-10.158-6.634-10.158m-24.076 0c-4.033 0-6.525 3.849-6.525 10.228 0 6.236 2.452 10.01 6.6 10.01 4.034 0 6.564-3.922 6.564-10.08 0-6.235-2.569-10.158-6.639-10.158-4.033 0-6.525 3.849-6.525 10.228 0 6.236 2.452 10.01 6.6 10.01 4.034 0 6.564-3.922 6.564-10.08 0-6.235-2.569-10.158-6.639-10.158m24.076 0c-4.035 0-6.53 3.849-6.53 10.228 0 6.236 2.457 10.01 6.603 10.01 4.031 0 6.561-3.922 6.561-10.08 0-6.235-2.565-10.158-6.634-10.158m23.136-.225s-.835.056-1.245.121c-1.583.255-2.055.684-2.055 2.634V96.54c0 2.097 1.307 2.222 3.15 2.326 4.497.255 7.11-3.74 7.11-10.2 0-6.466-2.596-10.263-6.96-10.263 0 0-.834.056-1.244.121-1.584.255-2.055.684-2.055 2.634V96.54c0 2.098 1.306 2.223 3.148 2.326 4.498.255 7.11-3.74 7.11-10.2 0-6.466-2.595-10.263-6.958-10.263m-23.136.225c-4.035 0-6.532 3.85-6.532 10.228 0 6.237 2.458 10.011 6.604 10.011 4.031 0 6.561-3.922 6.561-10.08 0-6.236-2.565-10.159-6.633-10.159m-24.076 0c-4.034 0-6.525 3.85-6.525 10.228 0 6.237 2.45 10.011 6.598 10.011 4.035 0 6.565-3.922 6.565-10.08 0-6.236-2.568-10.159-6.638-10.159" fill="#006f46"/></svg>